<svg width="1052" height="939" viewBox="0 0 1052 939" fill="none" xmlns="http://www.w3.org/2000/svg">
<path d="M625.462 645.563L399.269 643.859L284.903 418.438L396.718 194.735L622.898 196.438L737.277 421.86L625.462 645.563Z" stroke="#595D5E" stroke-miterlimit="10"/>
<path d="M612.564 623.484H409.151L307.458 420.003L409.151 216.522H612.564L714.271 420.003L612.564 623.484Z" fill="#595D5E"/>
<path d="M238.998 239.767H782.731L505.385 743.513L238.998 239.767Z" fill="url(#paint0_linear_15_5)"/>
<path d="M263.983 263.043H757.732L505.876 720.238L263.983 263.043Z" fill="#979AB0"/>
<path d="M377.086 476.788L428.212 407.897L460.423 454.387L510.858 341.247L547.624 420.003L571.773 389.301L639.98 476.788L505.877 720.238L377.086 476.788Z" fill="url(#paint1_linear_15_5)" stroke="url(#paint2_linear_15_5)" stroke-miterlimit="10"/>
<path opacity="0.43" d="M368.652 461.184L429.394 378.454L457.567 420.003L508.36 314.903L551.49 388.043L574.296 362.957L648.415 461.184L505.717 720.238L368.652 461.184Z" fill="url(#paint3_linear_15_5)" stroke="url(#paint4_linear_15_5)" stroke-miterlimit="10"/>
<path d="M575.997 260.342V288.251L643.367 324.277V393.275" stroke="white" stroke-miterlimit="10"/>
<path d="M562.103 260.342V358.769L603.784 386.371L603.691 450.567" stroke="white" stroke-miterlimit="10"/>
<path d="M550.294 260.342V361.837L567.655 381.768V418.561L550.294 436.957V468.395" stroke="white" stroke-miterlimit="10"/>
<path d="M541.262 260.342L546.123 269.855V361.837L541.262 378.699V433.904" stroke="white" stroke-miterlimit="10"/>
<path d="M532.575 260.342L539.522 273.307V358.615L527.023 386.754V458.806" stroke="white" stroke-miterlimit="10"/>
<path d="M521.125 260.342L530.144 276.744V350.729L515.214 372.577V425.082" stroke="white" stroke-miterlimit="10"/>
<path d="M504.097 260.342V278.278L487.772 301.661V351.496L504.097 374.112L503.672 429.869" stroke="white" stroke-miterlimit="10"/>
<path d="M490.203 260.342L469.375 297.058V354.564L487.772 380.234V479.12" stroke="white" stroke-miterlimit="10"/>
<path d="M476.309 260.342L461.724 292.471V397.096L432.21 426.999L432.555 462.197" stroke="white" stroke-miterlimit="10"/>
<path d="M463.81 260.342L454.259 285.183V342.704L441.933 358.615V387.138L433.458 397.924" stroke="white" stroke-miterlimit="10"/>
<path d="M451.311 260.342L440.538 288.635V332.363L413.8 356.851V437.203" stroke="white" stroke-miterlimit="10"/>
<path d="M439.502 260.342L432.555 284.032V323.894L396.081 345.359V399.98" stroke="white" stroke-miterlimit="10"/>
<path d="M419.698 260.342L373.858 308.566V396.712" stroke="white" stroke-miterlimit="10"/>
<path d="M643.115 402.466C646.137 402.466 648.587 399.766 648.587 396.436C648.587 393.106 646.137 390.406 643.115 390.406C640.092 390.406 637.642 393.106 637.642 396.436C637.642 399.766 640.092 402.466 643.115 402.466Z" stroke="white" stroke-miterlimit="10"/>
<path d="M603.691 463.792C607 463.792 609.682 460.832 609.682 457.18C609.682 453.527 607 450.567 603.691 450.567C600.383 450.567 597.701 453.527 597.701 457.18C597.701 460.832 600.383 463.792 603.691 463.792Z" stroke="white" stroke-miterlimit="10"/>
<path d="M550.294 489.845C555.664 489.845 560.017 485.043 560.017 479.12C560.017 473.197 555.664 468.395 550.294 468.395C544.924 468.395 540.571 473.197 540.571 479.12C540.571 485.043 544.924 489.845 550.294 489.845Z" stroke="white" stroke-miterlimit="10"/>
<path d="M527.023 472.231C530.383 472.231 533.106 469.229 533.106 465.526C533.106 461.823 530.383 458.821 527.023 458.821C523.663 458.821 520.939 461.823 520.939 465.526C520.939 469.229 523.663 472.231 527.023 472.231Z" stroke="white" stroke-miterlimit="10"/>
<path d="M540.651 440.793C543.673 440.793 546.124 438.093 546.124 434.763C546.124 431.433 543.673 428.733 540.651 428.733C537.629 428.733 535.178 431.433 535.178 434.763C535.178 438.093 537.629 440.793 540.651 440.793Z" stroke="white" stroke-miterlimit="10"/>
<path d="M503.672 442.711C506.885 442.711 509.489 439.839 509.489 436.297C509.489 432.755 506.885 429.884 503.672 429.884C500.458 429.884 497.854 432.755 497.854 436.297C497.854 439.839 500.458 442.711 503.672 442.711Z" stroke="white" stroke-miterlimit="10"/>
<path d="M550.294 484.766C553.126 484.766 555.421 482.238 555.421 479.12C555.421 476.002 553.126 473.474 550.294 473.474C547.463 473.474 545.167 476.002 545.167 479.12C545.167 482.238 547.463 484.766 550.294 484.766Z" stroke="white" stroke-miterlimit="10"/>
<path d="M515.214 430.022C517.687 430.022 519.691 427.81 519.691 425.082C519.691 422.353 517.687 420.141 515.214 420.141C512.742 420.141 510.738 422.353 510.738 425.082C510.738 427.81 512.742 430.022 515.214 430.022Z" stroke="white" stroke-miterlimit="10"/>
<path d="M413.8 448.219C416.558 448.219 418.794 445.753 418.794 442.711C418.794 439.669 416.558 437.203 413.8 437.203C411.042 437.203 408.806 439.669 408.806 442.711C408.806 445.753 411.042 448.219 413.8 448.219Z" stroke="white" stroke-miterlimit="10"/>
<path d="M432.555 484.751C438.204 484.751 442.783 479.702 442.783 473.474C442.783 467.246 438.204 462.197 432.555 462.197C426.907 462.197 422.328 467.246 422.328 473.474C422.328 479.702 426.907 484.751 432.555 484.751Z" stroke="white" stroke-miterlimit="10"/>
<path d="M432.555 478.844C435.24 478.844 437.417 476.44 437.417 473.474C437.417 470.508 435.24 468.104 432.555 468.104C429.87 468.104 427.694 470.508 427.694 473.474C427.694 476.44 429.87 478.844 432.555 478.844Z" stroke="white" stroke-miterlimit="10"/>
<path d="M430.244 408.496C433.193 408.496 435.584 405.858 435.584 402.604C435.584 399.35 433.193 396.712 430.244 396.712C427.295 396.712 424.904 399.35 424.904 402.604C424.904 405.858 427.295 408.496 430.244 408.496Z" stroke="white" stroke-miterlimit="10"/>
<path d="M396.081 412.623C399.242 412.623 401.806 409.793 401.806 406.302C401.806 402.81 399.242 399.98 396.081 399.98C392.919 399.98 390.356 402.81 390.356 406.302C390.356 409.793 392.919 412.623 396.081 412.623Z" stroke="white" stroke-miterlimit="10"/>
<path d="M487.772 501.736C493.428 501.736 498.013 496.673 498.013 490.428C498.013 484.183 493.428 479.12 487.772 479.12C482.116 479.12 477.531 484.183 477.531 490.428C477.531 496.673 482.116 501.736 487.772 501.736Z" stroke="white" stroke-miterlimit="10"/>
<path d="M487.772 495.599C490.362 495.599 492.461 493.284 492.461 490.428C492.461 487.572 490.362 485.257 487.772 485.257C485.182 485.257 483.083 487.572 483.083 490.428C483.083 493.284 485.182 495.599 487.772 495.599Z" stroke="white" stroke-miterlimit="10"/>
<path d="M373.858 406.302C379.375 406.302 383.847 401.369 383.847 395.285C383.847 389.201 379.375 384.269 373.858 384.269C368.342 384.269 363.87 389.201 363.87 395.285C363.87 401.369 368.342 406.302 373.858 406.302Z" stroke="white" stroke-miterlimit="10"/>
<defs>
<linearGradient id="paint0_linear_15_5" x1="238.995" y1="491.636" x2="782.728" y2="491.636" gradientUnits="userSpaceOnUse">
<stop offset="0.3771" stop-color="#E5E6EB"/>
<stop offset="0.6425" stop-color="#F1F3F1"/>
</linearGradient>
<linearGradient id="paint1_linear_15_5" x1="377.083" y1="530.743" x2="639.984" y2="530.743" gradientUnits="userSpaceOnUse">
<stop offset="0.1816" stop-color="#F6F6F6"/>
<stop offset="1" stop-color="#2581C4" stop-opacity="0"/>
</linearGradient>
<linearGradient id="paint2_linear_15_5" x1="376.265" y1="530.645" x2="640.815" y2="530.645" gradientUnits="userSpaceOnUse">
<stop offset="0.6285" stop-color="#F6F6F6"/>
<stop offset="0.757" stop-color="#F6F6F6"/>
<stop offset="0.9358" stop-color="#E5E9F2" stop-opacity="0.5112"/>
<stop offset="1" stop-color="#2581C4" stop-opacity="0"/>
</linearGradient>
<linearGradient id="paint3_linear_15_5" x1="368.655" y1="517.57" x2="648.412" y2="517.57" gradientUnits="userSpaceOnUse">
<stop offset="0.6341" stop-color="#F6F6F6"/>
<stop offset="1" stop-color="#2581C4" stop-opacity="0"/>
</linearGradient>
<linearGradient id="paint4_linear_15_5" x1="367.838" y1="517.566" x2="649.239" y2="517.566" gradientUnits="userSpaceOnUse">
<stop offset="0.9581" stop-color="#F6F6F6"/>
<stop offset="1" stop-color="#2581C4" stop-opacity="0"/>
</linearGradient>
</defs>
</svg>
